<svg width="96" height="96" viewBox="0 0 96 96" fill="none" xmlns="http://www.w3.org/2000/svg">
<circle cx="48" cy="48" r="48" fill="#444444"/>
<path d="M25.68 38.4H28.76L36.88 58H33.66L31.56 52.82H22.88L20.78 58H17.56L25.68 38.4ZM24 50.02H30.44L27.22 41.9L24 50.02ZM46.1331 38.4H49.2131L57.3331 58H54.1131L52.0131 52.82H43.3331L41.2331 58H38.0131L46.1331 38.4ZM44.4531 50.02H50.8931L47.6731 41.9L44.4531 50.02ZM66.5863 38.4H69.6663L77.7863 58H74.5663L72.4663 52.82H63.7863L61.6863 58H58.4663L66.5863 38.4ZM64.9062 50.02H71.3463L68.1263 41.9L64.9062 50.02Z" fill="white"/>
</svg>
