<svg width="96" height="96" viewBox="0 0 96 96" fill="none" xmlns="http://www.w3.org/2000/svg">
<circle cx="48" cy="48" r="48" fill="#F3F3F2"/>
<path d="M26.68 38.4H29.76L37.88 58H34.66L32.56 52.82H23.88L21.78 58H18.56L26.68 38.4ZM25 50.02H31.44L28.22 41.9L25 50.02ZM47.1331 38.4H50.2131L58.3331 58H55.1131L53.0131 52.82H44.3331L42.2331 58H39.0131L47.1331 38.4ZM45.4531 50.02H51.8931L48.6731 41.9L45.4531 50.02ZM67.5863 38.4H70.6663L78.7863 58H75.5663L73.4663 52.82H64.7863L62.6863 58H59.4663L67.5863 38.4ZM65.9062 50.02H72.3463L69.1263 41.9L65.9062 50.02Z" fill="#444444"/>
</svg>
